<svg id="Layer_1" data-name="Layer 1" xmlns="http://www.w3.org/2000/svg" width="1920" height="1080" viewBox="0 0 1920 1080"><defs><style>.cls-1{fill:#9c272d;}.cls-2{fill:#c1272d;}.cls-3{fill:#666;}.cls-4{fill:gray;}.cls-5{fill:#333;stroke-width:0.75px;}.cls-20,.cls-5,.cls-6{stroke:#000;stroke-miterlimit:10;}.cls-6{fill:none;}.cls-7{fill:#006837;}.cls-8{fill:#009245;}.cls-9{fill:#79272d;}.cls-10{fill:#55272d;}.cls-11{fill:#004937;}.cls-12{fill:#005337;}.cls-13{fill:#003e37;}.cls-14{fill:#4d5454;}.cls-15{fill:#878787;}.cls-16{fill:#ff0;}.cls-17{fill:blue;}.cls-18{fill:#39b54a;}.cls-19{fill:red;}</style></defs><path class="cls-1" d="M1227.31,195.1c-106.54-34.08-213.74-68.84-324.9-86.38-27-4.26-39,2.88-43.24,28.84C819.7,377.31,758.28,590.5,661.06,813.08c-10.53,24.1-1.65,36.84,21.41,48,25.25,12.24,53.56,26,83.45,39.71,1.11.29,2.22.57,3.32.87a6.17,6.17,0,0,1,1.53.08A66.64,66.64,0,0,1,783.9,906c15.24,2.8,30,9.68,44.18,15.11,18.84,7.2,37.86,13.63,57,19.84C904,947,922.8,953.55,942,958.83c19.47,5.37,39.17,9.44,58.79,14.2,15.88,3.86,32.1,6,48.32,7.84,6.24-3.6,10.42-10.53,13.55-22.93C1123.45,716.77,1184.24,477.5,1252.08,238,1259.42,212.09,1253.21,203.38,1227.31,195.1Z"/><rect class="cls-2" x="553.15" y="327.91" width="785.23" height="388.55" rx="36.66" transform="translate(181.51 1285.78) rotate(-73.88)"/><path class="cls-3" d="M1091,538,824.69,461a40.07,40.07,0,0,1-27.37-49.62L867.58,168.3a40.08,40.08,0,0,1,49.62-27.37l266.35,77a40,40,0,0,1,27.36,49.61l-70.26,243.1A40.06,40.06,0,0,1,1091,538Z"/><rect class="cls-4" x="856.42" y="217.78" width="259.84" height="242.55" rx="40.07" transform="translate(132.93 -260.54) rotate(16.12)"/><line class="cls-5" x1="824.42" y1="460.96" x2="1091.42" y2="537.96"/><path class="cls-6" d="M879.92,238.46a46.32,46.32,0,0,1,42.18-42.79"/><path class="cls-6" d="M1106.82,390.44c-9.5,25.34-12.42,64.57-30,80.45-20.42,18.5-27.92,8.07-47.58,7.63"/><path class="cls-6" d="M1217.92,193.46a45.58,45.58,0,0,1,14.74,25.72c3.17,17.21-5,30.23-6.79,33"/><path class="cls-6" d="M696.09,859c-10.14-2.9-18.87-5.91-26.46-13.79-9-9.31-13.47-17.61-10.3-30.65"/><path class="cls-6" d="M1049.26,863.77c-5,20.12-13.13,59-26.19,71.22-15.22,14.29-21,7.69-37.67,8"/><path d="M791.13,485.16l-1.06-.31-3.13-12.07-2.73,9.49,1.52.44a.72.72,0,0,1,.41.24.42.42,0,0,1,0,.33.41.41,0,0,1-.22.26.61.61,0,0,1-.46,0l-3-.87a.65.65,0,0,1-.4-.25.42.42,0,0,1,0-.33.43.43,0,0,1,.21-.26.69.69,0,0,1,.47,0l.69.2,2.85-9.87-1.12-.33a.67.67,0,0,1-.39-.23.44.44,0,0,1,0-.34.41.41,0,0,1,.22-.26.63.63,0,0,1,.45,0l2.17.62,3.13,12.1,2.74-9.51-1.53-.44a.68.68,0,0,1-.39-.23.44.44,0,0,1,0-.34.45.45,0,0,1,.21-.27.66.66,0,0,1,.46,0l3,.88a.72.72,0,0,1,.4.24.44.44,0,0,1,0,.34.41.41,0,0,1-.22.26.63.63,0,0,1-.45,0l-.7-.2Z"/><path d="M803,479.35l-2.22,7.71,3.25.93a.65.65,0,0,1,.4.24.4.4,0,0,1,0,.34.44.44,0,0,1-.22.26.69.69,0,0,1-.47,0l-7.33-2.11a.73.73,0,0,1-.39-.24.45.45,0,0,1,0-.34.41.41,0,0,1,.22-.26.63.63,0,0,1,.45,0l3.25.94,2-6.87-2.41-.7a.57.57,0,0,1-.39-.24.35.35,0,0,1,0-.33.39.39,0,0,1,.21-.27.63.63,0,0,1,.47,0Zm1.2-4.25-.62,2.13-1.22-.35.62-2.14Z"/><path d="M813,482.22l-.36,1.25a6.11,6.11,0,0,1,1.91-.76,3.7,3.7,0,0,1,1.67.12,3.81,3.81,0,0,1,1.61.9,3,3,0,0,1,.72,1.27,2.59,2.59,0,0,1,0,1.53l-1.5,5.21.7.21a.61.61,0,0,1,.39.23.4.4,0,0,1,0,.34.39.39,0,0,1-.21.26.66.66,0,0,1-.46,0l-2.22-.64a.67.67,0,0,1-.4-.24.42.42,0,0,1,0-.33.43.43,0,0,1,.22-.27.67.67,0,0,1,.46,0l.69.2,1.47-5.08a2.09,2.09,0,0,0-.22-1.67,2.52,2.52,0,0,0-1.54-1.1,3.15,3.15,0,0,0-1.51-.08,8.27,8.27,0,0,0-2.19,1.15l-1.49,5.19.93.27a.65.65,0,0,1,.39.24.37.37,0,0,1,0,.34.37.37,0,0,1-.21.25.6.6,0,0,1-.46,0l-2.7-.78a.67.67,0,0,1-.39-.24.42.42,0,0,1,0-.33.4.4,0,0,1,.21-.26.65.65,0,0,1,.46,0l.94.27,2-6.86-.7-.2a.62.62,0,0,1-.39-.25.4.4,0,0,1,0-.34.39.39,0,0,1,.21-.26.66.66,0,0,1,.46,0Z"/><path d="M831.29,488.09a.61.61,0,0,1,.23-.38.42.42,0,0,1,.6.17.62.62,0,0,1,0,.47l-.41,1.42a.66.66,0,0,1-.24.38.37.37,0,0,1-.34,0,.39.39,0,0,1-.25-.18.52.52,0,0,1,0-.4,1.4,1.4,0,0,0-.33-1.15,4,4,0,0,0-2-1.17,3.85,3.85,0,0,0-2.32-.06,1.26,1.26,0,0,0-.86.78,1.2,1.2,0,0,0,.41,1.18,5.33,5.33,0,0,0,1.67.95,12.13,12.13,0,0,1,2.27,1.11,3.11,3.11,0,0,1,1.15,1.37,2.2,2.2,0,0,1,.09,1.45,2.5,2.5,0,0,1-1.56,1.59,4.82,4.82,0,0,1-3.21,0,5.27,5.27,0,0,1-2.93-1.92,1.33,1.33,0,0,1-.16.42.43.43,0,0,1-.19.13.53.53,0,0,1-.25,0,.43.43,0,0,1-.26-.21.65.65,0,0,1,0-.46l.5-1.71a.67.67,0,0,1,.23-.39.4.4,0,0,1,.34,0,.46.46,0,0,1,.26.21.47.47,0,0,1,0,.37,1.27,1.27,0,0,0,0,.82,2.61,2.61,0,0,0,.87,1.1,5.06,5.06,0,0,0,1.76.84,4.2,4.2,0,0,0,2.58.1,1.72,1.72,0,0,0,1.15-1.05,1.44,1.44,0,0,0-.44-1.46,6.44,6.44,0,0,0-2.17-1.3,10,10,0,0,1-2.1-1.05,2.4,2.4,0,0,1-.82-1.07,1.87,1.87,0,0,1-.05-1.21,2,2,0,0,1,1.53-1.39,5.09,5.09,0,0,1,2.67.09A4.6,4.6,0,0,1,831.29,488.09Z"/><path d="M845,496.27l-8.44-2.43a4.22,4.22,0,0,0,.6,3,4.29,4.29,0,0,0,2.51,1.78,6.93,6.93,0,0,0,2,.26,5.24,5.24,0,0,0,1.89-.33.59.59,0,0,1,.37-.06.41.41,0,0,1,.24.21.4.4,0,0,1,0,.32.45.45,0,0,1-.25.28,4.67,4.67,0,0,1-2,.44,7.62,7.62,0,0,1-2.6-.29,5,5,0,0,1-3.15-2.42,4.73,4.73,0,0,1-.45-3.78,4.33,4.33,0,0,1,2.23-2.71,5.07,5.07,0,0,1,6.64,2A4.85,4.85,0,0,1,845,496.27Zm-.6-1.07a3.77,3.77,0,0,0-.65-2.6,4,4,0,0,0-2.25-1.58,4,4,0,0,0-2.74.13,3.76,3.76,0,0,0-2,1.86Z"/><path d="M852.15,493.51l-.36,1.26a6.11,6.11,0,0,1,1.91-.76,4,4,0,0,1,3.28,1,2.93,2.93,0,0,1,.72,1.27,2.59,2.59,0,0,1,0,1.53l-1.5,5.21.7.2a.65.65,0,0,1,.39.24.35.35,0,0,1,0,.33.37.37,0,0,1-.21.26.6.6,0,0,1-.46,0l-2.22-.64a.65.65,0,0,1-.39-.24.42.42,0,0,1,.17-.6.66.66,0,0,1,.46,0l.69.2,1.47-5.07a2,2,0,0,0-.22-1.67,2.48,2.48,0,0,0-1.54-1.1,3,3,0,0,0-1.51-.08,8.27,8.27,0,0,0-2.19,1.15l-1.49,5.19.93.27a.61.61,0,0,1,.39.24.35.35,0,0,1,0,.33.37.37,0,0,1-.21.26.65.65,0,0,1-.46,0l-2.7-.78a.73.73,0,0,1-.39-.24.43.43,0,0,1,0-.33.4.4,0,0,1,.22-.27.63.63,0,0,1,.45,0l.94.27,2-6.87-.7-.2a.65.65,0,0,1-.39-.24.4.4,0,0,1,0-.34.37.37,0,0,1,.21-.26.71.71,0,0,1,.46,0Z"/><path d="M873,495.39l-3.33,11.54,1.1.31a.72.72,0,0,1,.41.24.43.43,0,0,1-.18.6.66.66,0,0,1-.46,0l-2-.56.48-1.64a4.54,4.54,0,0,1-4.22.91,4.31,4.31,0,0,1-2-1.22,4.35,4.35,0,0,1-1.14-2.16,4.94,4.94,0,0,1,.06-2.45,5,5,0,0,1,1.25-2.11,4.54,4.54,0,0,1,4.46-1.21,4.6,4.6,0,0,1,3.07,3L872,496l-1.1-.31a.62.62,0,0,1-.4-.25.37.37,0,0,1,0-.34.39.39,0,0,1,.21-.26.69.69,0,0,1,.47,0Zm-3.18,7.88a3.82,3.82,0,0,0-.3-3,3.65,3.65,0,0,0-5.07-1.47,4,4,0,0,0-1.53,5.32,3.64,3.64,0,0,0,5.07,1.46A3.79,3.79,0,0,0,869.86,503.27Z"/><path d="M884.33,507.44a4.58,4.58,0,0,1-2.29,2.84,4.85,4.85,0,0,1-6.55-1.9,4.57,4.57,0,0,1-.42-3.61,4.8,4.8,0,0,1,6-3.25,4.7,4.7,0,0,1,2.88,2.28A4.64,4.64,0,0,1,884.33,507.44Zm-.84-.24a3.93,3.93,0,0,0-2.72-4.84,3.9,3.9,0,1,0-2.15,7.49,3.83,3.83,0,0,0,3-.33A3.74,3.74,0,0,0,883.49,507.2Z"/><path d="M910.32,514.9l-1,3.55a9.32,9.32,0,0,1-2.12.24,7,7,0,0,1-1.95-.27,6.71,6.71,0,0,1-2.23-1.07,5.14,5.14,0,0,1-1.39-1.6,5.46,5.46,0,0,1-.63-1.9,5.92,5.92,0,0,1,.25-2.34l.44-1.51a5.75,5.75,0,0,1,1.44-2.45,5,5,0,0,1,2.41-1.44,5.14,5.14,0,0,1,2.75.06,5.47,5.47,0,0,1,3.07,2.07,2.75,2.75,0,0,1,.2-.58.4.4,0,0,1,.19-.13.42.42,0,0,1,.27,0,.42.42,0,0,1,.26.21.66.66,0,0,1,0,.46l-.54,1.87a.65.65,0,0,1-.24.4.42.42,0,0,1-.33,0,.45.45,0,0,1-.25-.2.67.67,0,0,1,0-.43,1.79,1.79,0,0,0-.69-1.69A5,5,0,0,0,908.1,507a4.36,4.36,0,0,0-2.2-.1,4.88,4.88,0,0,0-2.27,1.4,4.22,4.22,0,0,0-1.13,1.92l-.44,1.51a4.53,4.53,0,0,0,.32,3.64,5,5,0,0,0,3.13,2.21,5.86,5.86,0,0,0,1.43.24,8.66,8.66,0,0,0,1.66-.12l.88-3.06-2.84-.82a.65.65,0,0,1-.39-.24.38.38,0,0,1,0-.33.4.4,0,0,1,.22-.27.6.6,0,0,1,.46,0l4,1.16a.67.67,0,0,1,.4.24.41.41,0,0,1,0,.33.48.48,0,0,1-.15.22.51.51,0,0,1-.22.09A2.94,2.94,0,0,1,910.32,514.9Z"/><path d="M921.48,518.58,916,517l-2,2.7,1.59.46a.66.66,0,0,1,.38.24.38.38,0,0,1,.05.33.41.41,0,0,1-.22.26.57.57,0,0,1-.45,0l-3.1-.89a.65.65,0,0,1-.39-.24.45.45,0,0,1,0-.34.4.4,0,0,1,.21-.26.66.66,0,0,1,.46,0l.64.18,6.5-8.81-2.44-.71a.65.65,0,0,1-.39-.23.4.4,0,0,1,0-.34.37.37,0,0,1,.21-.26.65.65,0,0,1,.46,0l4.17,1.21,1,11.86.64.19a.61.61,0,0,1,.39.23.4.4,0,0,1,0,.34.39.39,0,0,1-.21.26.66.66,0,0,1-.46,0l-3.08-.89a.65.65,0,0,1-.4-.24.42.42,0,0,1,0-.33.43.43,0,0,1,.22-.27.7.7,0,0,1,.47,0l1.57.45Zm-.07-.92-.55-6.68-.31-.09-3.95,5.38Z"/><path d="M932.25,522.11l-1-.27-1.09-8.16-.16,0-2.85,9.88,1.53.44a.61.61,0,0,1,.39.23.4.4,0,0,1,0,.34.39.39,0,0,1-.21.26.66.66,0,0,1-.46,0l-3-.88a.57.57,0,0,1-.39-.24.43.43,0,0,1,.17-.59.71.71,0,0,1,.46,0l.7.21,2.84-9.87-.52-.16a.61.61,0,0,1-.39-.23.44.44,0,0,1,.17-.6.66.66,0,0,1,.46,0l2,.58,1.07,8,5.15-6.25,2,.59a.72.72,0,0,1,.4.24.44.44,0,0,1,0,.34.41.41,0,0,1-.22.26.66.66,0,0,1-.46,0l-.52-.15-2.84,9.87.69.2a.72.72,0,0,1,.4.24.44.44,0,0,1,0,.34.45.45,0,0,1-.21.26.69.69,0,0,1-.47,0l-3.05-.88a.73.73,0,0,1-.39-.24.42.42,0,0,1,.17-.6.66.66,0,0,1,.46,0l1.53.44,2.85-9.87-.18-.05Z"/><path d="M942.67,522.83l-1.37,4.74,6.37,1.84.7-2.45a.73.73,0,0,1,.24-.39.4.4,0,0,1,.34,0,.41.41,0,0,1,.26.22.63.63,0,0,1,0,.45l-.94,3.27-9.14-2.63a.73.73,0,0,1-.39-.24.42.42,0,0,1,0-.33.4.4,0,0,1,.22-.27.69.69,0,0,1,.45,0l1.12.32,2.84-9.87-1.11-.32a.61.61,0,0,1-.39-.24.38.38,0,0,1,0-.33.39.39,0,0,1,.21-.27.72.72,0,0,1,.46,0l8.7,2.51-.82,2.85a.65.65,0,0,1-.24.39.4.4,0,0,1-.34,0,.43.43,0,0,1-.26-.21.66.66,0,0,1,0-.46l.58-2-5.93-1.71L942.91,522l3,.85.27-.94a.57.57,0,0,1,.24-.38.4.4,0,0,1,.34,0,.44.44,0,0,1,.26.22.66.66,0,0,1,0,.46l-.78,2.7a.63.63,0,0,1-.24.39.42.42,0,0,1-.33,0,.46.46,0,0,1-.27-.22.66.66,0,0,1,0-.46l.27-.93Z"/><path d="M953.52,531.1l2.85-9.88-1.11-.32a.61.61,0,0,1-.39-.23.41.41,0,0,1,0-.34.39.39,0,0,1,.22-.26.71.71,0,0,1,.46,0l5.2,1.5a3.75,3.75,0,0,1,2.26,1.62,2.81,2.81,0,0,1-2,4.36,4.25,4.25,0,0,1,1.54,1.78,2.81,2.81,0,0,1,.11,1.87,3.12,3.12,0,0,1-.83,1.39,3.27,3.27,0,0,1-1.54.82,3.54,3.54,0,0,1-1.91,0l-6.19-1.79a.6.6,0,0,1-.39-.24.42.42,0,0,1,0-.33.37.37,0,0,1,.21-.26.71.71,0,0,1,.46,0Zm.83.23,4.19,1.21a2.72,2.72,0,0,0,1.49.05,2.56,2.56,0,0,0,1.15-.62,2.25,2.25,0,0,0,.62-1,2.08,2.08,0,0,0-.09-1.34,2.8,2.8,0,0,0-1-1.25,6.23,6.23,0,0,0-2.06-.93l-3-.85Zm1.61-5.57,2.93.84a4.33,4.33,0,0,0,1.81.15,2.25,2.25,0,0,0,1.17-.53,2.06,2.06,0,0,0,.64-1,2,2,0,0,0-.32-1.65,2.85,2.85,0,0,0-1.71-1.2l-3.28-.95Z"/><path d="M976.59,532.43a7.39,7.39,0,0,1-1.56,2.88,5.56,5.56,0,0,1-2.48,1.67,4.65,4.65,0,0,1-2.76.06,4.82,4.82,0,0,1-3-2.72,6.59,6.59,0,0,1-.26-4.8,6.49,6.49,0,0,1,2.78-3.92,4.77,4.77,0,0,1,4-.68,4.63,4.63,0,0,1,2.3,1.51,5.77,5.77,0,0,1,1.21,2.73A7.3,7.3,0,0,1,976.59,532.43Zm-.84-.24a6.17,6.17,0,0,0-.13-4,3.72,3.72,0,0,0-2.57-2.48,3.86,3.86,0,0,0-3.42.67,5.89,5.89,0,0,0-2.3,3.34,5.62,5.62,0,0,0,.21,4.14,4,4,0,0,0,2.5,2.31,3.71,3.71,0,0,0,3.49-.73A6.23,6.23,0,0,0,975.75,532.19Z"/><path d="M984.87,535.4l-1.26,4.37,2.15.62a.73.73,0,0,1,.39.24.42.42,0,0,1,0,.33.41.41,0,0,1-.22.26.57.57,0,0,1-.45,0l-5.14-1.48a.73.73,0,0,1-.39-.24.44.44,0,0,1,.17-.6.66.66,0,0,1,.46,0l2.15.62,1.26-4.37-2-6.55-.49-.14a.65.65,0,0,1-.39-.24.38.38,0,0,1,0-.33.39.39,0,0,1,.21-.27.66.66,0,0,1,.46,0l2.27.66a.61.61,0,0,1,.39.23.4.4,0,0,1,.05.34.41.41,0,0,1-.22.26.63.63,0,0,1-.45,0l-.82-.23,1.75,5.55,4.37-3.79-.81-.23a.65.65,0,0,1-.4-.24.44.44,0,0,1,.17-.6.69.69,0,0,1,.47,0l2.26.66a.61.61,0,0,1,.39.23.4.4,0,0,1,.05.34.41.41,0,0,1-.22.26.63.63,0,0,1-.45,0l-.5-.14Z"/><rect x="909.04" y="168.24" width="79.71" height="4.22" rx="2.11" transform="translate(84.61 -256.77) rotate(16.12)"/><rect x="912.33" y="178.37" width="79.71" height="4.22" rx="2.11" transform="translate(87.55 -257.29) rotate(16.12)"/><ellipse class="cls-7" cx="1152.42" cy="340.96" rx="8" ry="3" transform="translate(581.19 1398.32) rotate(-78.1)"/><ellipse class="cls-8" cx="1151.77" cy="341.76" rx="5.77" ry="2.16" transform="translate(579.89 1398.33) rotate(-78.1)"/><path class="cls-4" d="M1136.59,348.68l-.36,1.69a1.41,1.41,0,0,1,1.25-.36,1.33,1.33,0,0,1,.88.6,1.51,1.51,0,0,1-.43,2,1.33,1.33,0,0,1-1,.22,1.42,1.42,0,0,1-1-.84l-.1.5-.6-.12a.22.22,0,0,1-.13-.07.12.12,0,0,1,0-.1.1.1,0,0,1,.06-.08.21.21,0,0,1,.14,0l.34.07.7-3.31-.34-.07a.26.26,0,0,1-.13-.07.16.16,0,0,1,0-.1.12.12,0,0,1,.06-.08.21.21,0,0,1,.14,0Zm1.7,3a1.19,1.19,0,0,0-.17-.9,1.07,1.07,0,0,0-1.55-.32,1.12,1.12,0,0,0-.51.75,1.2,1.2,0,0,0,.16.89,1.1,1.1,0,0,0,1.56.33A1.17,1.17,0,0,0,1138.29,351.66Z"/><path class="cls-4" d="M1141.53,353.71l.07-.37a1.81,1.81,0,0,1-1.29.22,1.06,1.06,0,0,1-.67-.38.8.8,0,0,1-.14-.63.88.88,0,0,1,.48-.58,1.59,1.59,0,0,1,1.06-.07l.38.11.43.16.09-.41a.47.47,0,0,0-.12-.41,1,1,0,0,0-.55-.28,3.16,3.16,0,0,0-.88,0h-.13a.16.16,0,0,1-.08-.06.16.16,0,0,1,0-.1s0-.06,0-.07a.86.86,0,0,1,.37-.06,3.13,3.13,0,0,1,.74,0,1.13,1.13,0,0,1,.71.4.7.7,0,0,1,.16.59l-.36,1.7.34.07a.26.26,0,0,1,.13.06.14.14,0,0,1,0,.11.16.16,0,0,1-.06.08.21.21,0,0,1-.14,0Zm.26-1.27a2,2,0,0,0-.36-.16l-.42-.11a1.46,1.46,0,0,0-.92.05.54.54,0,0,0-.33.38.51.51,0,0,0,.1.43.8.8,0,0,0,.5.27,1.38,1.38,0,0,0,.64,0,2.32,2.32,0,0,0,.68-.3Z"/><path class="cls-4" d="M1144.86,351.66l1.39.29a.23.23,0,0,1,.13.06.14.14,0,0,1,0,.11.1.1,0,0,1-.05.08.21.21,0,0,1-.14,0l-1.39-.29-.36,1.7a.48.48,0,0,0,.1.41.82.82,0,0,0,.49.26,2.12,2.12,0,0,0,.58,0,1.93,1.93,0,0,0,.5-.08.28.28,0,0,1,.11,0,.16.16,0,0,1,.08.06.16.16,0,0,1,0,.1.13.13,0,0,1-.06.07,1.11,1.11,0,0,1-.52.12,2.32,2.32,0,0,1-.75,0,1.15,1.15,0,0,1-.67-.36.74.74,0,0,1-.14-.63l.36-1.7-.48-.1a.17.17,0,0,1-.12-.06.14.14,0,0,1,0-.11.16.16,0,0,1,.06-.08.21.21,0,0,1,.14,0l.47.1.16-.75c0-.07,0-.11.07-.13a.12.12,0,0,1,.1,0,.16.16,0,0,1,.08.06.21.21,0,0,1,0,.14Z"/><path class="cls-4" d="M1148.9,352.51l1.39.29a.19.19,0,0,1,.13.07.16.16,0,0,1,0,.1.16.16,0,0,1-.06.08.21.21,0,0,1-.14,0l-1.39-.29-.36,1.7a.47.47,0,0,0,.1.41.85.85,0,0,0,.49.26,2.15,2.15,0,0,0,.58,0,1.58,1.58,0,0,0,.5-.08.23.23,0,0,1,.11,0,.1.1,0,0,1,.08.05.12.12,0,0,1,0,.1.16.16,0,0,1-.06.08,1.3,1.3,0,0,1-.52.11,2.33,2.33,0,0,1-.75,0,1.09,1.09,0,0,1-.66-.36.7.7,0,0,1-.15-.62l.36-1.71-.47-.1a.18.18,0,0,1-.13-.06.12.12,0,0,1,0-.1.15.15,0,0,1,.06-.09.21.21,0,0,1,.14,0l.47.1.16-.75a.26.26,0,0,1,.07-.13.12.12,0,0,1,.1,0,.16.16,0,0,1,.08.06.21.21,0,0,1,0,.14Z"/><path class="cls-4" d="M1154.56,355.14l-2.61-.55a1.3,1.3,0,0,0,.25.89,1.35,1.35,0,0,0,.8.49,2.1,2.1,0,0,0,.62,0,1.83,1.83,0,0,0,.57-.14.17.17,0,0,1,.11,0,.16.16,0,0,1,.08.06.16.16,0,0,1,0,.1.18.18,0,0,1-.07.09,1.33,1.33,0,0,1-.58.17,2.1,2.1,0,0,1-.79,0,1.52,1.52,0,0,1-1-.66,1.44,1.44,0,0,1-.22-1.14,1.32,1.32,0,0,1,.61-.87,1.43,1.43,0,0,1,1.11-.18,1.45,1.45,0,0,1,1,.63A1.44,1.44,0,0,1,1154.56,355.14Zm-.2-.31a1.13,1.13,0,0,0-.26-.77,1.14,1.14,0,0,0-.72-.43,1.18,1.18,0,0,0-1.37.7Z"/><path class="cls-4" d="M1157.2,354.26l-.13.64a4,4,0,0,1,.87-.42,1,1,0,0,1,.48,0,.67.67,0,0,1,.4.24c.11.13.15.22.14.27a.1.1,0,0,1-.06.09.11.11,0,0,1-.1,0l0,0-.06-.09a1,1,0,0,0-.16-.18.3.3,0,0,0-.15-.07.77.77,0,0,0-.43.05,5.74,5.74,0,0,0-1,.48l-.29,1.4,1.13.24a.18.18,0,0,1,.13.06.12.12,0,0,1,0,.1.15.15,0,0,1-.06.09.21.21,0,0,1-.14,0l-2-.43a.17.17,0,0,1-.12-.06.09.09,0,0,1,0-.1.1.1,0,0,1,0-.08.21.21,0,0,1,.14,0l.62.14.45-2.14-.47-.1a.23.23,0,0,1-.13-.06.12.12,0,0,1,0-.1.13.13,0,0,1,0-.09.21.21,0,0,1,.14,0Z"/><path class="cls-4" d="M1161,357.82l-.69-2.64h-.07a.18.18,0,0,1-.13-.07.12.12,0,0,1,0-.1.21.21,0,0,1,0-.06.09.09,0,0,1,.06,0h.1l.7.15a.17.17,0,0,1,.12.06.1.1,0,0,1,0,.1.11.11,0,0,1-.05.09.21.21,0,0,1-.14,0l-.35-.08.61,2.32,1.47-1.88-.35-.07a.18.18,0,0,1-.12-.07.12.12,0,0,1,0-.1.12.12,0,0,1,.06-.08.21.21,0,0,1,.14,0l.7.15a.17.17,0,0,1,.12.06.12.12,0,0,1,0,.1.1.1,0,0,1,0,.07l-.06,0a.41.41,0,0,1-.17,0l-2.32,3,.4.08a.22.22,0,0,1,.12.07.12.12,0,0,1,0,.1.16.16,0,0,1-.06.08.21.21,0,0,1-.14,0l-1.47-.31a.32.32,0,0,1-.13-.06.2.2,0,0,1,0-.11.16.16,0,0,1,.06-.08.21.21,0,0,1,.14,0l.8.17Z"/><rect class="cls-9" x="1189.85" y="315.39" width="63" height="3.8" rx="1.2" transform="translate(577.41 1402.51) rotate(-73.88)"/><path class="cls-10" d="M1229.54,290.69c2.84.82,1.65,13.55-2.65,28.44s-10.09,26.28-12.93,25.46"/><path class="cls-10" d="M1230.43,292.34a5.45,5.45,0,0,1,.06,4.41,3.66,3.66,0,0,1-.15.43c.77-.82,1.5-1.69,2.39-2.64a29.3,29.3,0,0,0-2.38-2.62A3.1,3.1,0,0,1,1230.43,292.34Z"/><path class="cls-10" d="M1230.13,297.14a5.9,5.9,0,0,1,.06,4.75,4,4,0,0,1-.16.45c.83-.88,1.62-1.81,2.57-2.83a31,31,0,0,0-2.56-2.82A3.58,3.58,0,0,1,1230.13,297.14Z"/><path class="cls-10" d="M1230.33,301.66a5.92,5.92,0,0,1-1.22,4.59c-.1.13-.17.27-.28.4,1-.63,2-1.31,3.24-2a30.79,30.79,0,0,0-1.71-3.4C1230.36,301.36,1230.34,301.51,1230.33,301.66Z"/><path class="cls-10" d="M1229.24,306.48a5.92,5.92,0,0,1-1.22,4.59c-.1.13-.17.27-.28.39,1-.62,2-1.31,3.24-2a30.1,30.1,0,0,0-1.71-3.41C1229.27,306.17,1229.25,306.33,1229.24,306.48Z"/><path class="cls-10" d="M1227.82,311.11a5.88,5.88,0,0,1-1.22,4.59,3.48,3.48,0,0,1-.28.39c1-.62,2-1.31,3.24-2a30.1,30.1,0,0,0-1.71-3.41A3.55,3.55,0,0,1,1227.82,311.11Z"/><path class="cls-10" d="M1226.82,316.11a5.88,5.88,0,0,1-1.22,4.59,3.48,3.48,0,0,1-.28.39c1-.62,2-1.31,3.24-2a30.1,30.1,0,0,0-1.71-3.41A3.55,3.55,0,0,1,1226.82,316.11Z"/><path class="cls-10" d="M1225,320.81a5.91,5.91,0,0,1-1.21,4.59c-.1.13-.17.27-.28.4,1-.63,2-1.31,3.23-2a29.14,29.14,0,0,0-1.71-3.4A3.4,3.4,0,0,1,1225,320.81Z"/><path class="cls-10" d="M1223,325.81a5.91,5.91,0,0,1-1.21,4.59c-.1.13-.17.27-.28.4,1-.63,2-1.31,3.23-2a29.14,29.14,0,0,0-1.71-3.4A3.4,3.4,0,0,1,1223,325.81Z"/><path class="cls-10" d="M1221.34,330.48a5.92,5.92,0,0,1-1.22,4.59c-.1.13-.17.27-.28.4,1-.63,2-1.31,3.24-2a30.79,30.79,0,0,0-1.71-3.4C1221.37,330.18,1221.35,330.33,1221.34,330.48Z"/><path class="cls-10" d="M1219.34,334.48a5.92,5.92,0,0,1-1.22,4.59c-.1.13-.17.27-.28.4,1-.63,2-1.31,3.24-2a30.79,30.79,0,0,0-1.71-3.4C1219.37,334.18,1219.35,334.33,1219.34,334.48Z"/><path class="cls-10" d="M1218.18,339.31a5.92,5.92,0,0,1-2.37,4.12,3.79,3.79,0,0,1-.37.31c1.17-.34,2.31-.74,3.65-1.13a30,30,0,0,0-.76-3.73C1218.29,339,1218.23,339.17,1218.18,339.31Z"/><rect class="cls-11" x="785.65" y="567.1" width="22.96" height="84.86" rx="8.11" transform="translate(200.11 -197.01) rotate(16.09)"/><rect class="cls-11" x="785.87" y="567.4" width="22.96" height="84.86" rx="8.05" transform="translate(1604.25 12.68) rotate(106.09)"/><rect class="cls-12" x="783.22" y="563.01" width="22.96" height="84.86" rx="8.11" transform="translate(198.88 -196.5) rotate(16.09)"/><rect class="cls-12" x="783.45" y="563.31" width="22.96" height="84.86" rx="8.05" transform="translate(1597.22 9.79) rotate(106.09)"/><ellipse class="cls-11" cx="795.42" cy="605.46" rx="9" ry="4.5"/><ellipse class="cls-13" cx="795.42" cy="605.46" rx="3" ry="0.5"/><ellipse class="cls-10" cx="933.53" cy="694.42" rx="26.42" ry="21.57" transform="translate(7.63 1398.98) rotate(-73.91)"/><ellipse class="cls-1" cx="928.66" cy="692.63" rx="23.74" ry="19.38" transform="translate(5.82 1392.99) rotate(-73.91)"/><ellipse class="cls-10" cx="985.74" cy="789.46" rx="26.42" ry="21.57" transform="translate(-45.95 1517.85) rotate(-73.91)"/><ellipse class="cls-1" cx="980.86" cy="787.66" rx="23.74" ry="19.38" transform="translate(-47.75 1511.86) rotate(-73.91)"/><path d="M937.29,744.92H936l-7.26-12.27v11.29h1.82a.76.76,0,0,1,.51.13.44.44,0,0,1,.16.36.43.43,0,0,1-.16.35.71.71,0,0,1-.51.14H927a.74.74,0,0,1-.52-.14.45.45,0,0,1-.15-.35.46.46,0,0,1,.15-.36.79.79,0,0,1,.52-.13h.82V732.2h-1.33a.75.75,0,0,1-.5-.14.46.46,0,0,1-.15-.36.44.44,0,0,1,.15-.35.75.75,0,0,1,.5-.14H929l7.27,12.29V732.2h-1.82a.75.75,0,0,1-.5-.14.46.46,0,0,1-.15-.36.43.43,0,0,1,.14-.35.76.76,0,0,1,.51-.14h3.63a.76.76,0,0,1,.51.14.44.44,0,0,1,.15.35.46.46,0,0,1-.15.36.76.76,0,0,1-.51.14h-.83Z"/><path d="M998.56,841.8h-1.37l-5-12.73h-.77a.91.91,0,0,1-.38-.05.43.43,0,0,1-.2-.18.52.52,0,0,1,0-.52.57.57,0,0,1,.2-.18,1.11,1.11,0,0,1,.38,0h3.67a1.21,1.21,0,0,1,.4,0,.52.52,0,0,1,.18.18.46.46,0,0,1,0,.52.43.43,0,0,1-.2.18.88.88,0,0,1-.38.05h-1.88l4.57,11.75h.07l4.51-11.75h-1.88a1,1,0,0,1-.4-.05.41.41,0,0,1-.19-.18.48.48,0,0,1-.07-.26.42.42,0,0,1,.08-.26.54.54,0,0,1,.19-.18,1.14,1.14,0,0,1,.39,0h3.66a1.21,1.21,0,0,1,.4,0,.47.47,0,0,1,.19.18.46.46,0,0,1,0,.52.43.43,0,0,1-.2.18.91.91,0,0,1-.39.05h-.75Z"/><path d="M985.75,943.45c2,.64,4,.89,6,1.41,2.34.6,4.44,2.13,6.54,3.32,4,2.3,8.1,4.57,12.15,6.86,7.94,4.49,15.83,9.06,23.42,14.12,4.52,3,8.92,6.21,13.16,9.6.38.3.91-.23.53-.53-14.73-11.78-31.32-20.74-47.68-30l-3.43-2a18.58,18.58,0,0,0-3.4-1.83c-2.32-.74-4.77-1-7.1-1.72-.46-.15-.65.58-.2.73Z"/><path d="M985.76,942.67q-14.55-4.84-29.27-9.2c-4.85-1.43-9.71-2.81-14.6-4.1s-9.82-2.27-14.44-4.28c-.43-.19-.82.45-.37.64,4.45,1.95,9.21,3,13.9,4.18q7.46,2,14.84,4.14,15,4.4,29.74,9.34c.46.16.66-.57.2-.72Z"/><ellipse class="cls-10" cx="807.16" cy="859.09" rx="12.88" ry="10.51" transform="translate(-241.95 1396.6) rotate(-73.91)"/><ellipse class="cls-14" cx="804.78" cy="858.22" rx="11.57" ry="9.45" transform="translate(-242.83 1393.68) rotate(-73.91)"/><ellipse class="cls-10" cx="841.21" cy="868.74" rx="12.88" ry="10.51" transform="translate(-226.61 1436.29) rotate(-73.91)"/><ellipse class="cls-14" cx="838.83" cy="867.86" rx="11.57" ry="9.45" transform="translate(-227.48 1433.37) rotate(-73.91)"/><rect x="670.41" y="775.92" width="79.71" height="4.22" rx="2.11" transform="matrix(0.97, 0.23, -0.23, 0.97, 200.05, -143.65)"/><rect x="668.2" y="783.47" width="79.71" height="4.22" rx="2.11" transform="translate(201.74 -142.93) rotate(13.43)"/><rect x="667.2" y="791.47" width="79.71" height="4.22" rx="2.11" transform="translate(203.57 -142.48) rotate(13.43)"/><path d="M787.07,830.08l0-.13a.35.35,0,0,1,.12-.19.21.21,0,0,1,.16,0,.15.15,0,0,1,.12.1.32.32,0,0,1,0,.22l-.29,1a.48.48,0,0,1-.11.19.23.23,0,0,1-.16,0,.22.22,0,0,1-.13-.1.34.34,0,0,1,0-.2,1.06,1.06,0,0,0-.2-.83,1.62,1.62,0,0,0-.92-.6,1.55,1.55,0,0,0-1.13,0,1.05,1.05,0,0,0-.61.68.86.86,0,0,0,0,.45,1,1,0,0,0,.2.4,1.76,1.76,0,0,0,.35.31,4.49,4.49,0,0,0,.66.35,5.24,5.24,0,0,1,1,.59,1.53,1.53,0,0,1,.47.68,1.47,1.47,0,0,1,0,.83,1.55,1.55,0,0,1-.88,1,2.2,2.2,0,0,1-1.59,0,2.26,2.26,0,0,1-1.45-1.11l-.07.22a.34.34,0,0,1-.11.19.21.21,0,0,1-.29-.08.34.34,0,0,1,0-.22l.31-1.09a.36.36,0,0,1,.11-.19.2.2,0,0,1,.17,0,.22.22,0,0,1,.12.09.34.34,0,0,1,0,.2,1.14,1.14,0,0,0,.24.92,1.87,1.87,0,0,0,1.08.7,1.76,1.76,0,0,0,1.27,0,1.16,1.16,0,0,0,.69-.75,1,1,0,0,0,0-.6,1.15,1.15,0,0,0-.38-.52,5.1,5.1,0,0,0-.87-.49,3.34,3.34,0,0,1-1.27-.91,1.21,1.21,0,0,1-.15-1.09,1.43,1.43,0,0,1,.8-.92,2,2,0,0,1,1.43-.07A2.21,2.21,0,0,1,787.07,830.08Z"/><path d="M793.09,835.24l-4-1.16a2,2,0,0,0,.28,1.42,2.05,2.05,0,0,0,1.2.85,3.68,3.68,0,0,0,1,.12,2.32,2.32,0,0,0,.89-.16.31.31,0,0,1,.18,0,.14.14,0,0,1,.11.09.18.18,0,0,1,0,.16.19.19,0,0,1-.12.13,2.12,2.12,0,0,1-.93.21,3.4,3.4,0,0,1-1.23-.14,2.4,2.4,0,0,1-1.51-1.15,2.27,2.27,0,0,1-.21-1.8,2.09,2.09,0,0,1,1.06-1.29,2.25,2.25,0,0,1,1.75-.16,2.22,2.22,0,0,1,1.41,1.09A2.25,2.25,0,0,1,793.09,835.24Zm-.28-.51a1.75,1.75,0,0,0-.31-1.24,1.85,1.85,0,0,0-1.07-.75,1.92,1.92,0,0,0-1.3.06,1.79,1.79,0,0,0-.93.89Z"/><path d="M798.52,832.53,796.93,838l1.55.45a.31.31,0,0,1,.19.11.18.18,0,0,1,0,.16.19.19,0,0,1-.1.13.34.34,0,0,1-.22,0l-3.49-1a.27.27,0,0,1-.19-.11.22.22,0,0,1,0-.16.19.19,0,0,1,.11-.12.25.25,0,0,1,.21,0l1.55.45,1.47-5.1-1.14-.33a.27.27,0,0,1-.18-.11.18.18,0,0,1,0-.16.19.19,0,0,1,.1-.13.34.34,0,0,1,.22,0Z"/><path d="M805.53,838.83l-4-1.16a2,2,0,0,0,.29,1.42,2.1,2.1,0,0,0,1.2.85,3.6,3.6,0,0,0,1,.12,2.63,2.63,0,0,0,.9-.16.31.31,0,0,1,.18,0,.21.21,0,0,1,.11.1.2.2,0,0,1,0,.15.27.27,0,0,1-.12.14,2.36,2.36,0,0,1-.93.21,3.73,3.73,0,0,1-1.24-.14,2.44,2.44,0,0,1-1.5-1.15,2.27,2.27,0,0,1-.21-1.8,2,2,0,0,1,1.06-1.29,2.25,2.25,0,0,1,1.75-.16,2.21,2.21,0,0,1,1.41,1.09A2.29,2.29,0,0,1,805.53,838.83Zm-.28-.52a1.83,1.83,0,0,0-.31-1.23,2,2,0,0,0-1.08-.76,1.87,1.87,0,0,0-1.3.07,1.77,1.77,0,0,0-.93.88Z"/><path d="M811.76,838.75l0-.13a.29.29,0,0,1,.11-.19.21.21,0,0,1,.29.08.37.37,0,0,1,0,.23l-.25.89a.35.35,0,0,1-.12.19.22.22,0,0,1-.16,0,.23.23,0,0,1-.12-.09.27.27,0,0,1,0-.2,1,1,0,0,0-.26-.76,1.85,1.85,0,0,0-1-.62,1.71,1.71,0,0,0-1.5.16,2,2,0,0,0-.81,1.13,1.76,1.76,0,0,0,.13,1.41,1.9,1.9,0,0,0,1.16.87,2.93,2.93,0,0,0,1,.1,2.32,2.32,0,0,0,1-.3c.09,0,.15-.06.2,0a.14.14,0,0,1,.12.09.2.2,0,0,1,0,.15c0,.14-.25.26-.62.38a3.24,3.24,0,0,1-1.85,0,2.23,2.23,0,0,1-1.39-1.06,2.18,2.18,0,0,1-.17-1.72,2.24,2.24,0,0,1,1.08-1.4,2.19,2.19,0,0,1,1.76-.17A2.32,2.32,0,0,1,811.76,838.75Z"/><path d="M815.64,839.44l2.14.62a.27.27,0,0,1,.18.11.18.18,0,0,1,0,.16.22.22,0,0,1-.1.13.4.4,0,0,1-.22,0l-2.14-.62-.75,2.62a.75.75,0,0,0,.1.65,1.32,1.32,0,0,0,.74.47,4.75,4.75,0,0,0,.9.13,3.48,3.48,0,0,0,.8-.07.34.34,0,0,1,.17,0,.18.18,0,0,1,.12.09.22.22,0,0,1,0,.16.19.19,0,0,1-.09.11,2,2,0,0,1-.83.13,3.89,3.89,0,0,1-1.16-.14,1.87,1.87,0,0,1-1-.64,1.09,1.09,0,0,1-.15-1l.75-2.63-.72-.21a.27.27,0,0,1-.19-.11.18.18,0,0,1,0-.16.22.22,0,0,1,.1-.13.34.34,0,0,1,.22,0l.73.21.33-1.17a.32.32,0,0,1,.12-.18.18.18,0,0,1,.16,0,.17.17,0,0,1,.12.1.27.27,0,0,1,0,.22Z"/><path d="M855.93,848.76l0-.14a.27.27,0,0,1,.11-.18.18.18,0,0,1,.16,0,.22.22,0,0,1,.13.1.34.34,0,0,1,0,.22l-.29,1a.31.31,0,0,1-.11.19.22.22,0,0,1-.16,0,.18.18,0,0,1-.12-.1.26.26,0,0,1,0-.2,1,1,0,0,0-.2-.82,1.59,1.59,0,0,0-.91-.61,1.63,1.63,0,0,0-1.14,0,1.05,1.05,0,0,0-.61.68.9.9,0,0,0,0,.46,1,1,0,0,0,.19.39,1.5,1.5,0,0,0,.35.31q.21.14.66.36a5.35,5.35,0,0,1,1,.58,1.38,1.38,0,0,1,.46,1.51,1.57,1.57,0,0,1-.87,1,2.53,2.53,0,0,1-3-1.06l-.07.22a.27.27,0,0,1-.11.19.18.18,0,0,1-.16,0,.18.18,0,0,1-.12-.1.28.28,0,0,1,0-.22l.31-1.09a.31.31,0,0,1,.12-.19.18.18,0,0,1,.16,0,.23.23,0,0,1,.12.1.26.26,0,0,1,0,.2,1.14,1.14,0,0,0,.23.92,1.92,1.92,0,0,0,1.08.69,1.85,1.85,0,0,0,1.28,0,1.21,1.21,0,0,0,.68-.76.92.92,0,0,0,0-.59,1.1,1.1,0,0,0-.37-.53,5.83,5.83,0,0,0-.88-.49,3.43,3.43,0,0,1-1.27-.91,1.2,1.2,0,0,1-.15-1.08,1.47,1.47,0,0,1,.8-.93,2,2,0,0,1,1.44-.07A2.17,2.17,0,0,1,855.93,848.76Z"/><path d="M859.63,850.94l2.14.62a.27.27,0,0,1,.18.11.2.2,0,0,1,0,.17.19.19,0,0,1-.1.12.4.4,0,0,1-.22,0l-2.14-.62-.75,2.62a.72.72,0,0,0,.11.65,1.24,1.24,0,0,0,.73.46,3.54,3.54,0,0,0,.9.14,3,3,0,0,0,.8-.07.38.38,0,0,1,.18,0,.16.16,0,0,1,.11.09.22.22,0,0,1,0,.16.21.21,0,0,1-.1.11,2,2,0,0,1-.83.13,3.89,3.89,0,0,1-1.16-.14,1.78,1.78,0,0,1-1-.64,1.09,1.09,0,0,1-.16-1l.76-2.63-.73-.21a.27.27,0,0,1-.19-.11.23.23,0,0,1,0-.16.2.2,0,0,1,.11-.13.31.31,0,0,1,.21,0l.73.21.34-1.17a.27.27,0,0,1,.11-.18.18.18,0,0,1,.16,0,.19.19,0,0,1,.13.1.34.34,0,0,1,0,.22Z"/><path d="M866.62,857.36l.16-.57a2.88,2.88,0,0,1-2,.19,1.6,1.6,0,0,1-1-.68,1.16,1.16,0,0,1-.15-1,1.33,1.33,0,0,1,.81-.85,2.48,2.48,0,0,1,1.66,0,5.74,5.74,0,0,1,.58.2c.21.09.43.19.66.31l.18-.64a.7.7,0,0,0-.13-.64,1.49,1.49,0,0,0-.84-.5,4.55,4.55,0,0,0-1.36-.11h-.21a.14.14,0,0,1-.11-.09.22.22,0,0,1,0-.16.2.2,0,0,1,.09-.11,1.71,1.71,0,0,1,.58,0,5.08,5.08,0,0,1,1.17.12,1.82,1.82,0,0,1,1.06.71,1.15,1.15,0,0,1,.17,1l-.75,2.61.53.15a.34.34,0,0,1,.19.11.21.21,0,0,1-.08.29.37.37,0,0,1-.23,0Zm.56-2a4,4,0,0,0-.55-.28,5.32,5.32,0,0,0-.64-.23,2.24,2.24,0,0,0-1.45,0,.81.81,0,0,0-.45,1.24,1.27,1.27,0,0,0,.74.47,2.32,2.32,0,0,0,1,.07,3.43,3.43,0,0,0,1.09-.39Z"/><path d="M872.4,854.62l-.28,1a6.36,6.36,0,0,1,1.41-.56,1.62,1.62,0,0,1,.76,0,1.12,1.12,0,0,1,.59.43c.15.21.22.36.19.44a.17.17,0,0,1-.1.13.18.18,0,0,1-.16,0l-.08,0a.55.55,0,0,1-.09-.14,1.47,1.47,0,0,0-.22-.31.56.56,0,0,0-.22-.13,1.34,1.34,0,0,0-.68,0,10,10,0,0,0-1.55.64l-.63,2.16,1.75.51a.27.27,0,0,1,.19.11.18.18,0,0,1,0,.16.18.18,0,0,1-.1.12.28.28,0,0,1-.22,0l-3.1-.89a.37.37,0,0,1-.18-.11.18.18,0,0,1,0-.16.22.22,0,0,1,.09-.12.34.34,0,0,1,.22,0l1,.27.94-3.28-.72-.21a.36.36,0,0,1-.19-.11.21.21,0,0,1,.08-.29.27.27,0,0,1,.22,0Z"/><path d="M878.28,856.32l2.14.62a.27.27,0,0,1,.19.11.22.22,0,0,1,0,.16.2.2,0,0,1-.11.13.37.37,0,0,1-.21,0l-2.14-.62-.76,2.62a.72.72,0,0,0,.11.65,1.29,1.29,0,0,0,.74.47,3.92,3.92,0,0,0,.9.12,3.06,3.06,0,0,0,.8-.06.26.26,0,0,1,.17,0,.14.14,0,0,1,.11.09.22.22,0,0,1,0,.16.21.21,0,0,1-.1.11,2,2,0,0,1-.83.13,3.93,3.93,0,0,1-1.16-.14,1.84,1.84,0,0,1-1-.64,1.12,1.12,0,0,1-.16-1l.76-2.63-.73-.21a.32.32,0,0,1-.19-.11.22.22,0,0,1,0-.16.19.19,0,0,1,.1-.13.4.4,0,0,1,.22,0l.72.22.34-1.17c0-.09.06-.16.11-.18a.18.18,0,0,1,.16,0,.19.19,0,0,1,.13.1.32.32,0,0,1,0,.22Z"/><rect class="cls-15" x="857.89" y="219.39" width="250.47" height="233.81" rx="40.07" transform="translate(132.03 -259.75) rotate(16.12)"/><circle class="cls-16" cx="935.92" cy="233.46" r="10.5"/><circle class="cls-17" cx="955.92" cy="240.46" r="10.5"/><circle class="cls-18" cx="975.92" cy="247.46" r="10.5"/><circle class="cls-19" cx="995.92" cy="254.46" r="10.5"/><circle class="cls-18" cx="939.92" cy="255.46" r="10.5"/><circle class="cls-19" cx="959.92" cy="262.46" r="10.5"/><circle class="cls-19" cx="979.92" cy="269.46" r="10.5"/><circle class="cls-17" cx="999.92" cy="276.46" r="10.5"/><circle class="cls-16" cx="1016.92" cy="261.46" r="10.5"/><circle class="cls-16" cx="1036.92" cy="268.46" r="10.5"/><circle class="cls-17" cx="1056.92" cy="275.46" r="10.5"/><circle class="cls-19" cx="1076.92" cy="282.46" r="10.5"/><circle class="cls-18" cx="1018.92" cy="282.46" r="10.5"/><circle class="cls-16" cx="1038.92" cy="289.46" r="10.5"/><circle class="cls-18" cx="943.92" cy="276.46" r="10.5"/><circle class="cls-16" cx="1022.92" cy="303.46" r="10.5"/><circle class="cls-19" cx="1028.92" cy="324.46" r="10.5"/><circle class="cls-17" cx="1036.92" cy="345.46" r="10.5"/><circle class="cls-17" cx="1014.92" cy="341.46" r="10.5"/><circle class="cls-17" cx="921.92" cy="269.46" r="10.5"/><circle class="cls-19" cx="954.92" cy="418.46" r="10.5"/><circle class="cls-16" cx="865.92" cy="392.46" r="10.5"/><circle class="cls-17" cx="886.92" cy="398.46" r="10.5"/><path d="M1047.28,417.46l3,1,0-.15a.32.32,0,0,1,.12-.18.25.25,0,0,1,.17,0,.25.25,0,0,1,.12.11.34.34,0,0,1,0,.22l-.18.54-3.77-1.25.19-.57c1-.45,2-.92,3-1.4a11,11,0,0,0,1-.52,1.89,1.89,0,0,0,.41-.34,1.14,1.14,0,0,0,.19-.34,1.27,1.27,0,0,0-.11-1,1.41,1.41,0,0,0-.84-.71,1.66,1.66,0,0,0-1,0,1.4,1.4,0,0,0-.74.56.32.32,0,0,1-.12.12.19.19,0,0,1-.15,0,.18.18,0,0,1-.11-.1.14.14,0,0,1,0-.14,1.35,1.35,0,0,1,.44-.52,1.8,1.8,0,0,1,.87-.38,2,2,0,0,1,1,.08,1.76,1.76,0,0,1,1.08.92,1.62,1.62,0,0,1,.15,1.31,1.41,1.41,0,0,1-.25.47,2.08,2.08,0,0,1-.46.39,10,10,0,0,1-1,.55c-1.21.6-2.19,1.06-2.93,1.36Z"/><path d="M1055.7,414.66l-.64,1.91a4.44,4.44,0,0,1,.73,0,2.43,2.43,0,0,1,.63.13,1.71,1.71,0,0,1,1,.92,2,2,0,0,1,0,1.51,2.2,2.2,0,0,1-1.06,1.32,2,2,0,0,1-1.58.12,2.63,2.63,0,0,1-1-.6,3.23,3.23,0,0,1-.52-.65.45.45,0,0,1-.09-.31.18.18,0,0,1,.1-.12.2.2,0,0,1,.15,0,.27.27,0,0,1,.14.14,2.3,2.3,0,0,0,1.31,1.16,1.58,1.58,0,0,0,1.28-.09,1.82,1.82,0,0,0,.86-1.09,1.57,1.57,0,0,0,0-1.19,1.39,1.39,0,0,0-.84-.73,2.77,2.77,0,0,0-1.32-.08.63.63,0,0,1-.23,0,.2.2,0,0,1-.12-.1.28.28,0,0,1,0-.18l.86-2.58,2.71.9q.15,0,.18.12a.2.2,0,0,1,0,.17.2.2,0,0,1-.11.11.28.28,0,0,1-.22,0Z"/><path d="M1063.8,419.72a2.34,2.34,0,0,1-1,.56,1.66,1.66,0,0,1-.94,0,1.6,1.6,0,0,1-.71-.49,1.71,1.71,0,0,1-.37-.88,2.15,2.15,0,0,1,.09-1,2.28,2.28,0,0,1,.87-1.16,1.51,1.51,0,0,1,1.38-.19,1.67,1.67,0,0,1,.86.65,2.35,2.35,0,0,1,.36,1.18,5.47,5.47,0,0,1-.31,2,3.3,3.3,0,0,1-.72,1.29,2.81,2.81,0,0,1-.76.55,3.21,3.21,0,0,1-1,.31,3,3,0,0,1-1.31-.11,1.39,1.39,0,0,1-.63-.39.24.24,0,0,1-.06-.22.23.23,0,0,1,.1-.12.26.26,0,0,1,.15,0,.55.55,0,0,1,.15.11,1.06,1.06,0,0,0,.39.23,2.5,2.5,0,0,0,1.93-.15,2.59,2.59,0,0,0,1.3-1.55Zm.14-.68a2.89,2.89,0,0,0-.18-1.48,1.29,1.29,0,0,0-.74-.62,1.18,1.18,0,0,0-1,.13,1.76,1.76,0,0,0-.7,2.12,1.15,1.15,0,0,0,.71.69,1.17,1.17,0,0,0,.59,0,1.8,1.8,0,0,0,.65-.28A5.45,5.45,0,0,0,1063.94,419Z"/><path d="M1070.3,419.7l.06-.17-2.79-.93-.11.34a.31.31,0,0,1-.12.19.22.22,0,0,1-.16,0,.19.19,0,0,1-.12-.11.31.31,0,0,1,0-.21l.24-.74,3.58,1.18-.21.62-3.23,4.49c0,.07-.09.12-.14.13a.15.15,0,0,1-.13,0,.23.23,0,0,1-.12-.1.26.26,0,0,1,0-.15.4.4,0,0,1,.07-.12Z"/><path d="M1045.9,396.54l.06-.17a.45.45,0,0,1,.15-.24.26.26,0,0,1,.21,0,.28.28,0,0,1,.16.14.42.42,0,0,1,0,.29l-.43,1.29a.38.38,0,0,1-.16.23.25.25,0,0,1-.21,0,.28.28,0,0,1-.15-.13.38.38,0,0,1,0-.26,1.35,1.35,0,0,0-.22-1.09,2.12,2.12,0,0,0-1.15-.83,2.15,2.15,0,0,0-1.48,0,1.41,1.41,0,0,0-.83.86,1.19,1.19,0,0,0,0,.59,1.24,1.24,0,0,0,.24.52,1.91,1.91,0,0,0,.43.42,7.06,7.06,0,0,0,.84.5,7.07,7.07,0,0,1,1.31.81,1.78,1.78,0,0,1,.57.92,1.88,1.88,0,0,1,0,1.07,2,2,0,0,1-1.19,1.25,3.29,3.29,0,0,1-3.9-1.54l-.1.29a.45.45,0,0,1-.15.24.31.31,0,0,1-.21,0,.32.32,0,0,1-.16-.14.43.43,0,0,1,0-.29l.46-1.39a.4.4,0,0,1,.16-.25.25.25,0,0,1,.21,0,.22.22,0,0,1,.15.13.38.38,0,0,1,0,.26,1.45,1.45,0,0,0,.26,1.2,2.44,2.44,0,0,0,1.36,1,2.32,2.32,0,0,0,1.66,0,1.52,1.52,0,0,0,.93-.94,1.3,1.3,0,0,0,0-.78,1.58,1.58,0,0,0-.46-.7,7.34,7.34,0,0,0-1.11-.68,4.18,4.18,0,0,1-1.6-1.25,1.51,1.51,0,0,1-.15-1.41,1.89,1.89,0,0,1,1.09-1.16,2.55,2.55,0,0,1,1.87,0A2.81,2.81,0,0,1,1045.9,396.54Z"/><path d="M1054.24,399.51l.12-.36a.38.38,0,0,1,.15-.23.27.27,0,0,1,.37.12.39.39,0,0,1,0,.28l-.47,1.4a.4.4,0,0,1-.16.25.25.25,0,0,1-.21,0,.26.26,0,0,1-.15-.12.41.41,0,0,1,0-.27,1.29,1.29,0,0,0-.25-1.08,2.72,2.72,0,0,0-1.41-1.06,2.68,2.68,0,0,0-1.19-.11,2,2,0,0,0-.77.26,3.85,3.85,0,0,0-1,.83,2.59,2.59,0,0,0-.49.9l-.29.88a2.87,2.87,0,0,0,.16,2.24,2.76,2.76,0,0,0,1.63,1.47,2.62,2.62,0,0,0,1.26.1,3.76,3.76,0,0,0,1.28-.52.32.32,0,0,1,.27-.06.22.22,0,0,1,.15.13.25.25,0,0,1,0,.19c0,.09-.17.2-.4.33a3.43,3.43,0,0,1-1.39.47,3.2,3.2,0,0,1-1.35-.13,3.48,3.48,0,0,1-1-.58,3.07,3.07,0,0,1-.59-.62,4.89,4.89,0,0,1-.45-1,3.47,3.47,0,0,1-.25-1.14,2.82,2.82,0,0,1,.17-1l.34-1a3.45,3.45,0,0,1,.91-1.4,3.05,3.05,0,0,1,3.14-.75A3.17,3.17,0,0,1,1054.24,399.51Z"/><path d="M1062.15,405.29a4.72,4.72,0,0,1-1,1.75,3.56,3.56,0,0,1-1.58,1,2.93,2.93,0,0,1-1.71,0,3,3,0,0,1-1.8-1.76,4,4,0,0,1,0-3,4.05,4.05,0,0,1,1.81-2.36,2.93,2.93,0,0,1,2.5-.32,2.82,2.82,0,0,1,1.38,1,3.43,3.43,0,0,1,.69,1.72A4.65,4.65,0,0,1,1062.15,405.29Zm-.51-.17a3.81,3.81,0,0,0,0-2.45,2.32,2.32,0,0,0-1.53-1.6,2.43,2.43,0,0,0-2.13.33,3.73,3.73,0,0,0-1.51,2,3.52,3.52,0,0,0,0,2.56,2.49,2.49,0,0,0,1.49,1.49,2.33,2.33,0,0,0,2.18-.36A3.9,3.9,0,0,0,1061.64,405.12Z"/><path d="M1065.27,406.73l-.87,2.64.93.31a.38.38,0,0,1,.24.16.25.25,0,0,1,0,.21.23.23,0,0,1-.14.15.42.42,0,0,1-.29,0l-2.12-.71a.35.35,0,0,1-.23-.16.2.2,0,0,1,0-.2.23.23,0,0,1,.14-.16.4.4,0,0,1,.28,0l.68.22,2-6-.68-.23a.41.41,0,0,1-.24-.16.25.25,0,0,1,0-.21.23.23,0,0,1,.14-.15.39.39,0,0,1,.28,0l3.06,1a2.35,2.35,0,0,1,1.39,1.13,1.87,1.87,0,0,1,.2,1.56,1.63,1.63,0,0,1-.74.89,3.13,3.13,0,0,1-1.6.36,4.71,4.71,0,0,1,.65,1.15,17.86,17.86,0,0,1,.59,2.33l.39.13a.35.35,0,0,1,.23.16.22.22,0,0,1,0,.21.23.23,0,0,1-.14.15.39.39,0,0,1-.28,0l-.67-.23a14.89,14.89,0,0,0-.71-2.73,4.07,4.07,0,0,0-.89-1.29Zm.17-.51,1.38.46a3,3,0,0,0,1.28.16,2,2,0,0,0,1-.31,1.13,1.13,0,0,0,.47-.58,1.41,1.41,0,0,0-.19-1.13,1.87,1.87,0,0,0-1.09-.87l-1.86-.62Z"/><path d="M1073.34,409.12l-1,2.9,3.89,1.29.5-1.5a.38.38,0,0,1,.15-.23.26.26,0,0,1,.21,0,.25.25,0,0,1,.16.14.39.39,0,0,1,0,.28l-.67,2-5.58-1.85a.41.41,0,0,1-.24-.16.25.25,0,0,1,0-.21.26.26,0,0,1,.14-.15.39.39,0,0,1,.28,0l.69.23,2-6-.68-.22a.41.41,0,0,1-.24-.16.25.25,0,0,1,0-.21.28.28,0,0,1,.14-.16.47.47,0,0,1,.28,0l5.32,1.76-.57,1.75a.35.35,0,0,1-.16.23.25.25,0,0,1-.21,0,.28.28,0,0,1-.16-.14.47.47,0,0,1,0-.28l.41-1.24-3.63-1.2-.87,2.63,1.81.6.19-.57a.39.39,0,0,1,.16-.23.26.26,0,0,1,.21,0,.25.25,0,0,1,.16.14.39.39,0,0,1,0,.28l-.55,1.65a.41.41,0,0,1-.16.24.26.26,0,0,1-.21,0,.32.32,0,0,1-.16-.14.43.43,0,0,1,0-.29l.19-.57Z"/><path d="M1082.22,414.23l.22.07a.88.88,0,0,1,.5.43.84.84,0,0,1,0,.66.81.81,0,0,1-.44.5.86.86,0,0,1-.65.05l-.22-.08a.86.86,0,0,1-.55-1.08.79.79,0,0,1,.44-.5A.82.82,0,0,1,1082.22,414.23Zm1.25-3.76.22.07a.85.85,0,0,1,.5.43.86.86,0,0,1,0,.65.83.83,0,0,1-.44.51.89.89,0,0,1-.66.05l-.21-.08a.79.79,0,0,1-.5-.43.78.78,0,0,1,0-.65.8.8,0,0,1,.44-.51A.82.82,0,0,1,1083.47,410.47Z"/><line class="cls-20" x1="957.92" y1="401.46" x2="966.92" y2="275.46"/></svg>