<svg id="Layer_1" data-name="Layer 1" xmlns="http://www.w3.org/2000/svg" width="1920" height="1080" viewBox="0 0 1920 1080"><defs><style>.cls-1{fill:#1b1464;}.cls-1,.cls-3,.cls-4,.cls-5{stroke:#000;}.cls-1,.cls-2,.cls-3,.cls-4,.cls-5{stroke-miterlimit:10;}.cls-2{fill:#e6e6e6;stroke:#999;}.cls-3{fill:#f2f2f2;}.cls-4{fill:#fff;}.cls-5{fill:#2e3192;}.cls-6{fill:#bdccd4;}</style></defs><rect class="cls-1" x="1337.13" y="273.29" width="424" height="696" rx="32.3" transform="translate(150 -288.79) rotate(11.19)"/><path class="cls-2" d="M1644.72,1002.7c-114.46-21.23-236.41-46.48-350.61-69-22.68-4.47-29.11-20.31-25.89-37.5C1296.74,744.12,1397.7,427,1379.81,287.8c-2-15.73,8.92-30.66,30.8-30.41,110.16,1.27,258.27,44.37,368.08,68.64,21.81,4.82,30.38,15.18,25.94,38-39.24,202.26-80.26,411.41-121.41,613.31C1678.56,1000.2,1667.45,1006.92,1644.72,1002.7Z"/><rect class="cls-3" x="1317.51" y="288.6" width="421.38" height="691.7" rx="32.3" transform="translate(152.15 -284.48) rotate(11.19)"/><rect class="cls-4" x="1316.91" y="296.05" width="410.23" height="692.72" rx="32.3" transform="translate(153.58 -283.13) rotate(11.19)"/><rect class="cls-5" x="1292.28" y="291.41" width="424" height="696" rx="32.3" transform="translate(152.66 -279.74) rotate(11.19)"/><rect class="cls-1" x="1290.71" y="247.38" width="34" height="706.06" rx="9.09" transform="translate(141.36 -242.34) rotate(11.19)"/><ellipse class="cls-1" cx="1399.13" cy="253.2" rx="32" ry="7.5" transform="translate(-17.28 128.85) rotate(-5.24)"/><path class="cls-6" d="M1412.17,407.37l4.79.95a9.9,9.9,0,0,1,7,4.76q2.24,3.82,1.11,9.49t-4.7,8.4a9.89,9.89,0,0,1-8.12,1.7l-4.91-1Zm-1.5,22.42,2,.4a6.76,6.76,0,0,0,6-1.49,13.8,13.8,0,0,0,2.8-14.23,6.69,6.69,0,0,0-5-3.68l-2-.4Z"/><path class="cls-6" d="M1439.17,418.87a7.48,7.48,0,0,1,5.39,3.76,10.34,10.34,0,0,1,.84,7.24,10.48,10.48,0,0,1-3.55,6.43,8.14,8.14,0,0,1-11.8-2.33,10.49,10.49,0,0,1-.82-7.3,10.38,10.38,0,0,1,3.54-6.39A7.46,7.46,0,0,1,1439.17,418.87Zm-3.26,16.52a4.54,4.54,0,0,0,4.27-1.3,10,10,0,0,0,2-10.12,4.88,4.88,0,0,0-7.76-1.56,10.2,10.2,0,0,0-2,10.17A4.49,4.49,0,0,0,1435.91,435.39Z"/><path class="cls-6" d="M1465.45,443.19l-3.53-.7-5.86-10.44-2.06,1.17-1.46,7.41-2.69-.53,4.81-24.33,2.69.53-2.76,13.95,9.93-5.92,3.43.68-9.64,5.73Z"/><path class="cls-6" d="M1484.85,447l-2.69-.54.53-2.65q-3.51,2.51-6.72,1.88-5.06-1-3.84-7.12l2.43-12.28,2.69.53-2.28,11.5a6.64,6.64,0,0,0,0,3.57,2.72,2.72,0,0,0,2.23,1.61c1.64.33,3.61-.35,5.9-2l2.56-13,2.7.53Z"/><path class="cls-6" d="M1507.49,451.5l-2.69-.53,2.34-11.79q.84-4.28-.75-4.59c-.54-.11-1.23.26-2.07,1.12a8.56,8.56,0,0,0-1.3,1.44l-2.56,13-2.68-.53,2.34-11.79q.84-4.28-.76-4.59c-.53-.11-1.22.27-2.06,1.12a9.15,9.15,0,0,0-1.3,1.44l-2.56,13-2.69-.54,3.55-18,2.59.52-.54,2.7a7.55,7.55,0,0,1,2.26-1.92,3.34,3.34,0,0,1,2.24-.45,2.77,2.77,0,0,1,1.78,1.24,4.6,4.6,0,0,1,.74,2.52,7.55,7.55,0,0,1,2.26-1.92,3.41,3.41,0,0,1,2.24-.45c2.17.43,2.88,2.59,2.11,6.47Z"/><path class="cls-6" d="M1529.57,446.62l-12.33-2.43a7.36,7.36,0,0,0,.77,5.38,5.67,5.67,0,0,0,3.94,2.84,16,16,0,0,0,5.23.12l0,2.25a13.69,13.69,0,0,1-5.77,0,8.71,8.71,0,0,1-5.94-3.84,9.82,9.82,0,0,1-1.07-7.42,10.27,10.27,0,0,1,3.54-6.39,7.33,7.33,0,0,1,6.19-1.42,6.77,6.77,0,0,1,4.72,3.39,9.34,9.34,0,0,1,.84,6.71Zm-2.5-2.76a5.19,5.19,0,0,0-.61-3.81,4,4,0,0,0-2.65-2,4.78,4.78,0,0,0-3.73.7,5.61,5.61,0,0,0-2.24,3.3Z"/><path class="cls-6" d="M1548.46,459.61l-2.69-.53,2.28-11.52a6.2,6.2,0,0,0-.08-3.63,2.79,2.79,0,0,0-2.19-1.55c-1.64-.33-3.61.35-5.9,2l-2.57,13-2.69-.53,3.55-18,2.69.53-.52,2.64c2.34-1.66,4.57-2.28,6.71-1.86q5.06,1,3.85,7.1Z"/><path class="cls-6" d="M1570,463a12.74,12.74,0,0,1-5.57.19q-4.82-.94-3.81-6l2.17-11-3.45-.68.47-2.33,3.44.68,1-4.91,2.62.52-1,4.91,6.1,1.21-.46,2.33-6.1-1.21-2,10.28a4.1,4.1,0,0,0,.22,2.68,2.46,2.46,0,0,0,1.79,1.3,10.67,10.67,0,0,0,4.56-.12Z"/><path class="cls-6" d="M1591.3,468.08l-2.67-.53a10.31,10.31,0,0,1,.24-3,7.32,7.32,0,0,1-6.91,2.13,5.1,5.1,0,0,1-3.24-2.12,4.86,4.86,0,0,1-.8-4,5,5,0,0,1,1-2.24,4.84,4.84,0,0,1,1.9-1.4,8.84,8.84,0,0,1,2.74-.61,19.34,19.34,0,0,1,3.63.14l3.06.35.17-.86q.91-4.62-3.39-5.47a9.78,9.78,0,0,0-2.67-.07,13.18,13.18,0,0,0-2.88.51l-.33-2.07a15.34,15.34,0,0,1,7.2-.53q6.14,1.22,4.85,7.71l-1.52,7.73A17.75,17.75,0,0,0,1591.3,468.08Zm-2.09-5.95.65-3.26c-2.47-.26-4.17-.38-5.11-.37a5.81,5.81,0,0,0-2.56.59,2.62,2.62,0,0,0-1.41,1.91,2.54,2.54,0,0,0,.46,2.12,3.3,3.3,0,0,0,2,1.17,5.7,5.7,0,0,0,3-.29A8.66,8.66,0,0,0,1589.21,462.13Z"/><path class="cls-6" d="M1612.38,471.41a13.09,13.09,0,0,1-5.58.19c-3.21-.64-4.47-2.65-3.8-6l2.17-11-3.45-.68.46-2.33,3.45.69,1-4.92,2.62.52-1,4.91,6.11,1.21-.46,2.33-6.11-1.21-2,10.28a4.06,4.06,0,0,0,.22,2.69,2.43,2.43,0,0,0,1.79,1.29,10.62,10.62,0,0,0,4.55-.12Z"/><path class="cls-6" d="M1628.75,475.49l-2.69-.53,3.1-15.64-5.3-1.05.46-2.33,8,1.58Zm3.59-25a1.77,1.77,0,0,1,1.19.8,1.94,1.94,0,0,1-.52,2.63,1.77,1.77,0,0,1-1.4.28,1.76,1.76,0,0,1-1.14-.81,1.86,1.86,0,0,1,.51-2.6A1.78,1.78,0,0,1,1632.34,450.47Z"/><path class="cls-6" d="M1651.1,460.79a7.49,7.49,0,0,1,5.39,3.75,12,12,0,0,1-2.71,13.68,8.14,8.14,0,0,1-11.8-2.33,10.49,10.49,0,0,1-.82-7.3,10.32,10.32,0,0,1,3.53-6.39A7.49,7.49,0,0,1,1651.1,460.79Zm-3.27,16.52a4.55,4.55,0,0,0,4.28-1.3,10,10,0,0,0,2-10.12,4.86,4.86,0,0,0-7.75-1.56,10.2,10.2,0,0,0-2,10.17A4.49,4.49,0,0,0,1647.83,477.31Z"/><path class="cls-6" d="M1675.62,484.76l-2.69-.53,2.28-11.52a6.2,6.2,0,0,0-.08-3.63,2.81,2.81,0,0,0-2.19-1.55c-1.65-.32-3.61.35-5.9,2l-2.58,13-2.69-.53,3.56-18,2.69.54-.52,2.63q3.49-2.49,6.71-1.86,5.05,1,3.84,7.11Z"/></svg>