<svg id="Layer_1" data-name="Layer 1" xmlns="http://www.w3.org/2000/svg" width="1100.78" height="514.11" viewBox="0 0 1100.78 514.11"><defs><style>.cls-1{fill:#ddbb8e;}.cls-2{fill:#b79b78;}.cls-3{fill:#695135;}.cls-4{fill:#e01f26;}.cls-5{fill:#cd2027;}.cls-6{fill:#af232c;}</style></defs><ellipse class="cls-1" cx="852.83" cy="246.61" rx="139.74" ry="131.23"/><path class="cls-2" d="M801.31,306.24c6.62,8.17,16.34,12.68,26.72,9.57,11.48-3.44,25.7-12.32,27.5-24.88-9.25,4-18.69,9.57-28,12.77S810.72,306.31,801.31,306.24Z"/><path class="cls-1" d="M804.87,370.49c17.12-20.86,49.74,21.39,89-3.06,2-1.2,3.58-5.41,5.57.28,7.82,22.41-20.48,59.39-43.77,65.63C830.89,440,790.16,388.4,804.87,370.49Z"/><ellipse class="cls-2" cx="782.54" cy="232.91" rx="9.17" ry="17.68"/><ellipse class="cls-2" cx="842.81" cy="235.64" rx="9.17" ry="17.68"/><path class="cls-3" d="M975.22,245.68c-69.74,25-62.13-37.92-152.86-67.46s-73.08,94.24-110.61,45.53,64.6-117.88,127.18-110.88S1045,220.7,975.22,245.68Z"/><path class="cls-4" d="M733.65,80.29l172.17,19,147.61,87.68a15.79,15.79,0,0,1,7,18.35h0A32.65,32.65,0,0,1,1017.84,226L720.44,114.6a15.36,15.36,0,0,1-6.14-24.52l3.06-3.47A19,19,0,0,1,733.65,80.29Z"/><path class="cls-4" d="M802.88,381.09c17.76-9.74,51.6,10,92.36-1.42,2-.57,3.71-2.53,5.77.13,8.11,10.46-21.24,27.74-45.4,30.65C829.87,413.56,787.62,389.46,802.88,381.09Z"/><circle class="cls-5" cx="891.03" cy="394.51" r="11.36"/><path class="cls-4" d="M905.74,402.65c1.52,6.07-3.34,19.61-7,19.75S897,411.27,896,408s-1.82-10.42,1.61-12.58S904.23,396.58,905.74,402.65Z"/><path class="cls-5" d="M897.81,408.55c-.46,6.25-9.29,17.59-12.84,16.57s1.83-11.11,1.88-14.57,1.52-10.47,5.45-11.45S898.27,402.31,897.81,408.55Z"/><path class="cls-6" d="M888.9,401.56c-.76,1.42-.57,2.45-1.31,3.78a3.78,3.78,0,0,1-.17-2.6c.26-1.63,2.19-4.29,3.82-4s2.21-.54,4.16.9C890.4,399.92,891.73,398.23,888.9,401.56Z"/><polyline class="cls-5" points="908.07 80.18 918.49 84.42 903.22 107.04"/></svg>