<svg id="Layer_1" data-name="Layer 1" xmlns="http://www.w3.org/2000/svg" width="256" height="256" viewBox="0 0 256 256"><defs><style>.cls-1{fill:#f2f2f2;}.cls-2{fill:#032623;}</style></defs><rect class="cls-1" width="256" height="256" rx="51.2"/><path class="cls-2" d="M89.57,191.64h0Q82.39,181,75.21,169.42T61.36,145.64Q54.72,133.43,49,120.93a238.3,238.3,0,0,1-9.83-25h-3.3v5.64q0,4,.2,8.39t.24,8.53h0V124c-.16,1.77-.27,4.3-.34,7.57s-.17,7-.3,11.29-.31,8.71-.52,13.42-.44,9.19-.71,13.44-.48,8-.62,11.36-.2,5.84-.2,7.48h0a8.86,8.86,0,0,1-1.64,2,16.59,16.59,0,0,1-2.36,1.74,27.42,27.42,0,0,1-2.45,1.35,5.22,5.22,0,0,1-2.15.51h0a2.06,2.06,0,0,1-1.85-.94,5.51,5.51,0,0,1-.82-2.15,15.7,15.7,0,0,1-.2-2.46v-1.84h0q0-12.49.61-24.81T24,137.32q.62-12.28,1-24.81t0-24.8h0c1.77-3.42,3.58-5.7,5.42-6.87A13.14,13.14,0,0,1,37.5,79.1h2.26a8,8,0,0,1,2.25.21h0q6.35,13.95,12.59,26.44t12.63,24.5q6.34,12,13.1,23.68T95.1,177.51h0l1.44,1.43a11.92,11.92,0,0,0,1.64,1.44h0q0-2.67.1-7.89t.41-12q.3-6.77.61-13.93t.51-13.95q.21-6.77.52-12t.3-7.91h0q.42-3.69,1-9.32t1.94-12q1.34-6.37,3.28-12.62a56.8,56.8,0,0,1,4.81-11.27,32.88,32.88,0,0,1,6.58-8.32,12.57,12.57,0,0,1,8.6-3.27h0a28.36,28.36,0,0,1-1.43,9A55.35,55.35,0,0,1,122,73.16a80.45,80.45,0,0,1-4.61,7.68,66.59,66.59,0,0,0-4.63,7.92,58.12,58.12,0,0,0-3.48,8.6,32.12,32.12,0,0,0-1.44,9.83h0v90l-.82.41a20.29,20.29,0,0,1-1.94.82l-2.26.81a14.16,14.16,0,0,1-2.15.62h-.41a3.08,3.08,0,0,1-.82.2h-.81a.55.55,0,0,1-.41-.2h0a17.46,17.46,0,0,1-1.85-1.54c-.82-.75-1.67-1.57-2.56-2.45s-1.74-1.79-2.56-2.69A8.7,8.7,0,0,0,89.57,191.64Zm85.48,2.48h0q-4.71-9.85-10.26-22T153.93,147q-5.33-12.93-10.13-26t-8.12-25h0a4,4,0,0,1,2.56-2.56,13.5,13.5,0,0,1,3.81-.51h0a6,6,0,0,1,1.44.21c.54.13.82.27.82.41h0l36.48,84,.61.21.41.2q1.63,0,3.48-4.61a128.43,128.43,0,0,0,4-12.21q2.15-7.57,4.73-17.1t5.53-19.69q3-10.16,6.45-19.68a184.14,184.14,0,0,1,7.17-17.13A53.08,53.08,0,0,1,221,75.32q4.1-4.62,8.81-4.61h0a5.44,5.44,0,0,1,2.45.51,3.8,3.8,0,0,1,1.64,2.35h0A30.22,30.22,0,0,1,231.63,78Q230,80.74,228,84.33t-4,7.5l-4,7.57q-2,3.69-3.51,6.46t-2.15,4.19h0a112.52,112.52,0,0,0-8.4,21.12q-3.06,10.89-5.83,21.94t-5.84,22.15a156.3,156.3,0,0,1-8,21.94h0l-.92.82a7.35,7.35,0,0,1-1.54,1,15.09,15.09,0,0,1-1.74.72,1.88,1.88,0,0,1-1.33.1h0a7.16,7.16,0,0,1-1.54-.82,11.93,11.93,0,0,1-1.84-1.54,11.47,11.47,0,0,1-1.54-1.84A6.94,6.94,0,0,1,175.05,194.12Z"/></svg>