<svg id="Layer_1" data-name="Layer 1" xmlns="http://www.w3.org/2000/svg" width="420" height="540" viewBox="0 0 420 540"><defs><style>.cls-1{fill:#b3b3b3;}.cls-2{fill:#ccab8b;}.cls-3{fill:gray;}.cls-4{fill:#b2947b;}.cls-5{fill:#bfbfbf;}</style></defs><path class="cls-1" d="M250.67,47.15c-23.19,20.91-1.51,1.42-1.51,1.42C181.44,106.45,227.38,77,188,143.36,149.74,207.86,90.26,185,115.8,261.8c26.27,79-67.26,56.49-87.24,27.63-9.51-13.85-2.37-2.33-2.37-2.33C-4.16,231.7.6,221.65,11.31,159.51c10.42-60.43,50.51-79.91,101-127.64C164.29-17.23,299.81,2.82,250.67,47.15Z"/><path class="cls-1" d="M312.44,349.64c-.07-31.23-.05-2.07-.05-2.07,2.17-89.06-6.63-35.21-29.7-108.83C260.27,167.17,317,138.19,242.81,105.89c-76.34-33.24,2.89-87.79,37.71-83.38,16.66,2.17,3.32-.21,3.32-.21,61.5,14.43,65.8,24.68,104.88,74.17,38,48.11,25.73,91,27.5,160.44C418,328.37,312.6,415.82,312.44,349.64Z"/><path class="cls-2" d="M386.44,288c-34.62,125.55-9.32,166.91-162.17,234.9S81.18,395.09,27.69,298.53s73-279,190.74-276.29S421.05,162.41,386.44,288Z"/><path class="cls-2" d="M416.19,244.83c-3.46,13.8-20.48,69.55-38.1,71.87s-26.2-61-21.88-79.58-4.79-56.18,24.8-58.35S419.65,231,416.19,244.83Z"/><path class="cls-1" d="M285.83,342.61c-.08-32.39-.05-2.15-.05-2.15C288,248.1,278.9,303.94,255,227.6c-23.26-74.22,35.61-104.28-41.37-137.78-79.17-34.47,3-91,39.12-86.47,17.27,2.25,3.44-.21,3.44-.21,63.78,15,68.24,25.59,108.77,76.91,39.41,49.9,26.68,94.33,28.52,166.39C395.35,320.55,286,411.25,285.83,342.61Z"/><path class="cls-3" d="M230.58,6a57,57,0,0,0-20.42,6.78c-6.57,3.81-12.21,9.08-17.24,14.72-2.92,3.27-5.65,6.7-8.32,10.17-.3.39.36.76.65.38,9.08-11.82,19.4-23.49,33.87-28.55a62.24,62.24,0,0,1,11.66-2.78c.47-.07.27-.79-.2-.72Z"/><path class="cls-3" d="M19.67,207.31c-2,8.6-3.5,17.3-4.66,26.05-1.06,8-1.94,16-.76,24.09a73.45,73.45,0,0,0,3.41,13.31c.15.45.88.26.72-.2a65.5,65.5,0,0,1-4-23C14.58,239,16,230.37,17.48,222c.84-4.84,1.8-9.66,2.92-14.45.1-.47-.62-.67-.73-.2Z"/><path class="cls-3" d="M391.32,170.35c2.34,22.92,1.94,46.05,2.07,69.06a159.36,159.36,0,0,1-.43,17.07,78.94,78.94,0,0,1-3.45,16c-3.27,10.28-8.09,20.07-13.19,29.56A278.11,278.11,0,0,1,357,332.89c-.29.39.37.76.65.37a277,277,0,0,0,17.55-27.58,201,201,0,0,0,13.73-29.08,89.72,89.72,0,0,0,4.17-15.45,99.2,99.2,0,0,0,1.09-16.52q0-17.64-.22-35.28c-.16-13-.56-26-1.88-39-.05-.47-.8-.48-.75,0Z"/><path class="cls-3" d="M372.29,350.09c1.43-7.27,2.82-14.55,4.35-21.8.38-1.76.76-3.52,1.16-5.27.23-1,.45-1.92.68-2.87a11.23,11.23,0,0,1,.73-2.86c.46-.72,1.6-.77,2.33-1.05a10.54,10.54,0,0,0,1.66-.79,11.12,11.12,0,0,0,3.25-2.86c.29-.37-.24-.91-.54-.53a10.63,10.63,0,0,1-3.77,3.11,14.31,14.31,0,0,1-2.47.82,1.44,1.44,0,0,0-1.05.7A10,10,0,0,0,378,319c-.22.87-.43,1.75-.64,2.62q-.67,2.86-1.29,5.75c-1.6,7.49-3,15-4.51,22.52-.09.47.63.68.73.2Z"/><path class="cls-4" d="M251.39,399.85c-3.6-18.66,1.64-38.73,13.39-53.6A63.45,63.45,0,0,1,276.14,335c1.52-1.15,0-3.76-1.51-2.59a70.51,70.51,0,0,0-27.23,51.49,66.43,66.43,0,0,0,1.1,16.71c.37,1.89,3.26,1.09,2.89-.8Z"/><path class="cls-5" d="M244.73,14.86a58,58,0,0,1,40.4,18.51c.32.36.85-.17.53-.53a58.77,58.77,0,0,0-40.93-18.73.38.38,0,0,0,0,.75Z"/><path class="cls-5" d="M207.25,38.81c-.3,3.35-.34,6.86,1,10A14.14,14.14,0,0,0,213.8,55c5.68,3.66,12.74,4.31,18.25,8.26.4.28.77-.37.38-.65-5.11-3.66-11.53-4.47-17-7.49a14.6,14.6,0,0,1-6.37-6.24c-1.48-3.14-1.4-6.74-1.1-10.11,0-.48-.71-.48-.75,0Z"/><path class="cls-5" d="M260.21,95.49A49.12,49.12,0,0,1,272.06,140a.38.38,0,0,0,.73.2,50,50,0,0,0-5.61-36.69A48,48,0,0,0,260.74,95c-.33-.35-.86.18-.53.53Z"/><path class="cls-5" d="M266,170.64c-2.11,15.18-4.18,31.79,3.36,45.88.23.42.88,0,.65-.38-7.44-13.89-5.37-30.34-3.28-45.3.06-.47-.66-.67-.73-.2Z"/><path class="cls-5" d="M287.46,262a65.46,65.46,0,0,1,7.94,34.1c0,.48.73.48.75,0a66.14,66.14,0,0,0-8-34.48c-.23-.42-.88,0-.64.38Z"/><path class="cls-5" d="M308.77,349.43a171.13,171.13,0,0,0,5.44-48.27c0-.48-.77-.48-.75,0a170.49,170.49,0,0,1-5.41,48.07.37.37,0,0,0,.72.2Z"/><path class="cls-5" d="M332.89,324.89A100.07,100.07,0,0,0,344.69,291c.07-.47-.65-.68-.73-.2a99.27,99.27,0,0,1-11.72,33.69c-.23.42.41.8.65.38Z"/><path class="cls-5" d="M328.61,254.57a55.28,55.28,0,0,0-3.13-29.4c-.17-.44-.9-.25-.72.2a54.59,54.59,0,0,1,3.12,29c-.07.47.65.67.73.2Z"/><path class="cls-5" d="M364.48,218.8a162.57,162.57,0,0,0-1.72-38c-.07-.48-.8-.28-.72.2a161.4,161.4,0,0,1,1.69,37.84c0,.48.71.48.75,0Z"/><path class="cls-5" d="M268.75,47.53a218.56,218.56,0,0,1,43.86,50.25,223.5,223.5,0,0,1,27,61,215,215,0,0,1,6.72,37.34c0,.48.79.48.75,0a219.61,219.61,0,0,0-16.31-65.29,225.1,225.1,0,0,0-34.61-56.93A215.63,215.63,0,0,0,269.28,47c-.37-.31-.9.22-.53.53Z"/><path class="cls-5" d="M181.32,10.8a54.06,54.06,0,0,0-37.93,17.08c-.33.35.2.88.53.53a53.36,53.36,0,0,1,37.4-16.86.38.38,0,0,0,0-.75Z"/><path class="cls-5" d="M122.29,32.28a55,55,0,0,1-19.86,17.14c-.43.22-.05.86.38.64a55.82,55.82,0,0,0,20.13-17.4c.28-.39-.37-.77-.65-.38Z"/><path class="cls-5" d="M52.48,98.73A137.1,137.1,0,0,0,31.9,137.78q-2,6.1-3.5,12.37c-.11.47.62.67.73.2A136.26,136.26,0,0,1,46,109.53q3.33-5.37,7.15-10.42c.29-.38-.36-.76-.65-.38Z"/></svg>